<svg xmlns="http://www.w3.org/2000/svg" width="524" height="452" viewBox="0 0 524 452" fill="none">
<g clip-path="url(#clip0_53_5330)">
<path d="M129.546 329.017C181.792 329.017 224.145 286.607 224.145 234.29C224.145 181.974 181.792 139.563 129.546 139.563C77.3003 139.563 34.9468 181.974 34.9468 234.29C34.9468 286.607 77.3003 329.017 129.546 329.017Z" stroke="black" stroke-miterlimit="10"/>
<path d="M83.2339 222.694V221.745H79.0253V220.367H89.0598V221.745H84.8959V222.694C84.878 225.119 86.7366 227.463 89.4887 228.402L88.6309 229.691C86.5043 228.939 84.878 227.391 84.0828 225.485C83.2697 227.633 81.5272 229.333 79.3202 230.165L78.4624 228.787C81.2324 227.839 83.225 225.369 83.225 222.685L83.2339 222.694ZM81.9025 231.328H83.5288V235.712H94.3764V237.09H81.8936V231.337L81.9025 231.328ZM93.8224 232.527H92.1961V225.396H88.3807V224.018H92.1961V218.864H93.8224V232.518V232.527Z" fill="black"/>
<path d="M108.584 231.927L107.601 233.261C105.474 232.205 103.634 229.995 102.758 227.311C101.9 230.147 100.06 232.509 97.8703 233.601L96.8428 232.223C99.6306 230.952 101.927 227.391 101.945 223.848V220.457H103.571V223.848C103.553 227.266 105.868 230.675 108.593 231.918L108.584 231.927ZM110.639 218.873H112.265V237.511H110.639V218.873Z" fill="black"/>
<path d="M130.547 227.633H121.799V220.072H130.547V227.633ZM129.43 232.097H123.944V230.854H129.475V229.011H131.101V230.854H136.677V232.097H131.146C131.128 233.941 134.13 235.748 137.32 236.133L136.721 237.421C133.951 237.036 131.405 235.721 130.288 233.985C129.171 235.748 126.553 237.036 123.765 237.421L123.166 236.133C126.365 235.793 129.43 233.985 129.43 232.097ZM128.912 226.344V221.405H123.426V226.344H128.912ZM134.577 218.873H136.167V229.565H134.577V218.873Z" fill="black"/>
<path d="M161.687 228.403H154.011V230.165H159.498V234.201H148.427V236.008H160.052V237.296H146.836V233.046H157.898V231.418H146.791V230.174H152.367V228.411H144.736V227.168H161.678V228.411L161.687 228.403ZM152.269 221.79H146.461V220.502H152.376V218.739H154.002V220.502H159.962V221.79H154.11C154.431 223.66 157.344 224.815 160.775 225.056L160.257 226.3C157.13 226.04 154.342 225.074 153.198 223.294C152.037 225.074 149.231 226.04 146.103 226.3L145.63 225.056C149.043 224.824 151.956 223.66 152.26 221.79H152.269Z" fill="black"/>
<path d="M173.902 221.96H171.972V228.143C172.937 228.08 173.857 227.991 174.759 227.883L174.884 229.127C171.114 229.708 166.735 229.789 163.474 229.771L163.304 228.393L165.708 228.375V221.951H163.822V220.618H173.902V221.951V221.96ZM166.137 231.283H167.763V235.703H178.655V237.081H166.128V231.283H166.137ZM170.381 228.259V221.969H167.334V228.366C168.317 228.348 169.353 228.304 170.381 228.259ZM176.171 218.873H177.797V224.546H180.585V225.924H177.797V232.581H176.171V218.882V218.873Z" fill="black"/>
<path d="M114.66 248.499H116.876C115.714 249.984 114.83 252.91 114.821 255.559C114.839 258.198 115.723 261.133 116.876 262.618H114.66C113.15 260.623 112.426 258.332 112.408 255.559C112.426 252.785 113.15 250.503 114.66 248.499Z" fill="black"/>
<path d="M118.037 256.936H120.414C120.459 257.759 121.281 258.323 122.38 258.323C123.479 258.323 124.328 257.696 124.31 256.775C124.328 255.853 123.506 255.2 122.156 255.2H121.129V253.464H122.156C123.3 253.446 124.069 252.838 124.051 251.916C124.069 251.057 123.407 250.467 122.407 250.467C121.406 250.467 120.557 251.031 120.539 251.916H118.252C118.296 249.948 120.065 248.579 122.407 248.597C124.774 248.579 126.347 250.002 126.329 251.782C126.347 253.071 125.462 253.974 124.176 254.198V254.296C125.865 254.493 126.785 255.504 126.785 256.936C126.785 258.886 124.935 260.291 122.38 260.291C119.824 260.291 118.082 258.904 118.037 256.936Z" fill="black"/>
<path d="M132.093 248.176C134.282 248.176 135.988 249.688 135.988 251.782C135.988 253.876 134.282 255.424 132.093 255.424C129.903 255.424 128.17 253.929 128.17 251.782C128.17 249.635 129.894 248.176 132.093 248.176ZM132.093 253.688C133.174 253.67 134.005 252.999 133.987 251.791C134.005 250.628 133.165 249.939 132.093 249.921C130.967 249.939 130.118 250.628 130.127 251.791C130.109 252.999 130.967 253.679 132.093 253.688ZM130.323 256.524H132.352V259.718H140.304V261.329H130.332V256.524H130.323ZM139.911 257.553H137.918V247.272H139.911V257.553Z" fill="black"/>
<path d="M144.03 262.608H141.814C142.976 261.123 143.861 258.197 143.87 255.549C143.852 252.909 142.967 249.975 141.814 248.489H144.03C145.541 250.485 146.264 252.775 146.282 255.549C146.264 258.323 145.541 260.604 144.03 262.608Z" fill="black"/>
<path d="M55.6146 414.403H49.9495V413.025H57.1961C57.1961 417.767 55.5431 422.241 50.164 425.22L49.2168 424.057C53.5505 421.632 55.3465 418.241 55.6056 414.394L55.6146 414.403ZM65.095 429.265H63.5045V419.476H60.8864V428.325H59.3406V411.101H60.8864V418.143H63.5045V410.627H65.095V429.265Z" fill="black"/>
<path d="M73.0744 411.915C75.8444 411.933 77.9174 413.803 77.9174 416.514C77.9174 419.225 75.8355 421.113 73.0744 421.069C70.2687 421.113 68.16 419.225 68.1868 416.514C68.1689 413.812 70.2687 411.942 73.0744 411.915ZM73.0744 419.646C74.8973 419.646 76.3359 418.358 76.3359 416.514C76.3359 414.671 74.8973 413.383 73.0744 413.383C71.2516 413.383 69.7683 414.689 69.7683 416.514C69.7683 418.34 71.1623 419.646 73.0744 419.646ZM71.0997 422.867H72.726V427.466H83.7076V428.844H71.0997V422.876V422.867ZM83.1089 424.245H81.4827V410.627H83.1089V424.245Z" fill="black"/>
<path d="M91.0879 414.448V413.499H86.8793V412.121H96.9138V413.499H92.7499V414.448C92.732 416.872 94.5906 419.217 97.3427 420.156L96.4849 421.445C94.3583 420.693 92.732 419.145 91.9368 417.23C91.1237 419.378 89.3813 421.078 87.1742 421.91L86.3164 420.532C89.0864 419.584 91.079 417.114 91.079 414.43L91.0879 414.448ZM89.7565 423.082H91.3828V427.466H102.23V428.844H89.7476V423.091L89.7565 423.082ZM101.676 424.281H100.05V417.15H96.2347V415.772H100.05V410.618H101.676V424.281Z" fill="black"/>
<path d="M159.417 426.393L164.564 420.935C166.369 419.02 167.227 417.991 167.227 416.595C167.227 415.029 165.922 414.018 164.224 414.018C162.419 414.018 161.284 415.155 161.267 416.855H159.506C159.462 414.171 161.544 412.363 164.269 412.39C167.039 412.372 168.987 414.215 169.031 416.595C168.987 418.295 168.218 419.602 165.511 422.393L162.035 425.954V426.08H169.282V427.753H159.417V426.375V426.393Z" fill="black"/>
<path d="M176.707 412.139C179.477 412.157 181.55 414.027 181.55 416.738C181.55 419.449 179.468 421.337 176.707 421.292C173.901 421.337 171.792 419.449 171.819 416.738C171.801 414.036 173.901 412.166 176.707 412.139ZM176.707 419.87C178.53 419.87 179.968 418.581 179.968 416.738C179.968 414.895 178.53 413.606 176.707 413.606C174.884 413.606 173.401 414.913 173.401 416.738C173.401 418.563 174.795 419.87 176.707 419.87ZM174.732 423.091H176.358V427.69H187.34V429.068H174.732V423.1V423.091ZM186.741 424.469H185.115V410.851H186.741V424.469Z" fill="black"/>
<path d="M194.721 414.671V413.723H190.512V412.345H200.547V413.723H196.383V414.671C196.365 417.096 198.223 419.44 200.976 420.38L200.118 421.668C197.991 420.917 196.365 419.369 195.57 417.454C194.756 419.601 193.014 421.301 190.807 422.134L189.949 420.756C192.719 419.807 194.712 417.338 194.712 414.653L194.721 414.671ZM193.389 423.306H195.016V427.69H205.863V429.068H193.38V423.315L193.389 423.306ZM205.309 424.505H203.683V417.373H199.868V415.996H203.683V410.842H205.309V424.505Z" fill="black"/>
<path d="M394.454 329.017C446.7 329.017 489.053 286.607 489.053 234.29C489.053 181.974 446.7 139.563 394.454 139.563C342.208 139.563 299.855 181.974 299.855 234.29C299.855 286.607 342.208 329.017 394.454 329.017Z" stroke="black" stroke-miterlimit="10"/>
<path d="M364.574 206.92H355.264V205.587H359.124V202.921H360.75V205.587H364.565V206.92H364.574ZM359.946 208.164C362.26 208.182 363.958 209.927 363.976 212.414C363.958 214.902 362.26 216.664 359.946 216.664C357.632 216.664 355.916 214.902 355.916 212.414C355.916 209.927 357.614 208.182 359.946 208.164ZM359.946 215.251C361.402 215.251 362.501 214.07 362.475 212.414C362.492 210.786 361.402 209.578 359.946 209.533C358.445 209.578 357.39 210.777 357.372 212.414C357.39 214.07 358.445 215.251 359.946 215.251ZM365.566 202.796H367.112V210.222H369.596V202.366H371.142V221.004H369.596V211.555H367.112V220.055H365.566V202.787V202.796Z" fill="black"/>
<path d="M384.947 207.949C384.902 210.294 383.231 211.967 380.747 212.244V215.421C382.588 215.331 384.455 215.161 386.233 214.902L386.359 216.101C382.087 216.915 377.504 216.915 374.135 216.915L373.92 215.537C375.439 215.537 377.2 215.537 379.067 215.474V212.235C376.556 211.931 374.868 210.285 374.868 207.94C374.868 205.346 376.967 203.583 379.925 203.556C382.838 203.574 384.902 205.337 384.947 207.94V207.949ZM379.925 210.866C381.873 210.884 383.312 209.667 383.312 207.949C383.312 206.232 381.873 205.006 379.925 204.988C377.932 205.006 376.494 206.187 376.494 207.949C376.494 209.712 377.932 210.893 379.925 210.866ZM387.431 202.366H389.102V221.004H387.431V202.366Z" fill="black"/>
<path d="M398.761 204.084H407.429V210.696H400.477V215.116C403.586 215.116 406.312 214.991 409.653 214.427L409.823 215.805C406.392 216.36 403.56 216.494 400.343 216.494H398.797V209.363H405.749V205.453H398.761V204.075V204.084ZM413.085 221.004H411.458V202.366H413.085V221.004Z" fill="black"/>
<path d="M433.243 214.606H428.909V221.004H427.283V214.606H422.225V221.004H420.554V214.606H416.221V213.228H433.252V214.606H433.243ZM418.401 203.091H420.027V205.623H429.418V203.091H431.045V211.036H418.392V203.091H418.401ZM429.427 209.703V206.956H420.036V209.703H429.427Z" fill="black"/>
<path d="M354.307 241.269L353.539 242.558C351.394 241.869 349.741 240.473 348.928 238.693C348.115 240.67 346.4 242.173 344.193 242.898L343.379 241.61C346.123 240.751 348.097 238.603 348.097 236.116V235.776H343.898V234.443H348.097V232.17H349.724V234.443H353.887V235.776H349.724V236.116C349.706 238.388 351.591 240.428 354.316 241.269H354.307ZM346.158 244.151H357.908V250.638H346.158V244.151ZM356.282 249.26V245.439H347.793V249.26H356.282ZM356.282 232.25H357.908V236.975H360.696V238.353H357.908V243.292H356.282V232.25Z" fill="black"/>
<path d="M369.784 235.606H362.877V234.229H371.455C371.455 239.508 368.988 244.321 362.921 247.328L361.974 246.039C366.799 243.632 369.435 240.044 369.784 235.597V235.606ZM376.307 239.812H379.309V241.225H376.307V250.844H374.636V232.242H376.307V239.803V239.812Z" fill="black"/>
<path d="M395.482 241.011H386.734V233.45H395.482V241.011ZM394.365 245.475H388.878V244.232H394.409V242.388H396.036V244.232H401.611V245.475H396.08C396.062 247.319 399.065 249.126 402.255 249.511L401.656 250.799C398.886 250.414 396.339 249.099 395.223 247.363C394.106 249.126 391.488 250.414 388.7 250.799L388.101 249.511C391.3 249.171 394.365 247.363 394.365 245.475ZM393.846 239.722V234.783H388.36V239.722H393.846ZM399.512 232.251H401.102V242.943H399.512V232.251Z" fill="black"/>
<path d="M426.613 241.789H418.937V243.552H424.424V247.587H413.353V249.395H424.978V250.683H411.762V246.433H422.833V244.805H411.727V243.561H417.302V241.798H409.671V240.555H426.613V241.798V241.789ZM417.195 235.177H411.387V233.889H417.302V232.126H418.928V233.889H424.888V235.177H419.036C419.357 237.047 422.27 238.201 425.702 238.443L425.183 239.687C422.056 239.427 419.268 238.461 418.124 236.68C416.963 238.461 414.157 239.427 411.03 239.687L410.556 238.443C413.969 238.21 416.882 237.047 417.186 235.177H417.195Z" fill="black"/>
<path d="M438.836 235.347H436.906V241.529C437.871 241.467 438.791 241.377 439.694 241.27L439.819 242.514C436.048 243.095 431.67 243.176 428.409 243.158L428.239 241.78L430.642 241.762V235.338H428.757V234.005H438.836V235.338V235.347ZM431.071 244.67H432.698V249.09H443.59V250.468H431.062V244.67H431.071ZM435.316 241.646V235.356H432.269V241.753C433.252 241.735 434.288 241.69 435.316 241.646ZM441.106 232.26H442.732V237.932H445.52V239.31H442.732V245.967H441.106V232.269V232.26Z" fill="black"/>
<path d="M379.594 263.854H381.81C380.649 265.339 379.764 268.265 379.755 270.913C379.773 273.553 380.658 276.487 381.81 277.973H379.594C378.084 275.977 377.361 273.687 377.343 270.913C377.361 268.139 378.084 265.858 379.594 263.854Z" fill="black"/>
<path d="M382.972 272.29H385.358C385.403 273.114 386.225 273.677 387.324 273.677C388.423 273.677 389.272 273.051 389.254 272.129C389.272 271.208 388.45 270.555 387.1 270.555H386.073V268.819H387.1C388.244 268.801 389.013 268.192 388.995 267.271C389.013 266.421 388.351 265.821 387.351 265.821C386.35 265.821 385.501 266.385 385.483 267.271H383.196C383.24 265.302 385.018 263.933 387.351 263.951C389.718 263.933 391.291 265.356 391.273 267.137C391.291 268.425 390.406 269.329 389.12 269.552V269.651C390.809 269.848 391.729 270.859 391.729 272.29C391.729 274.241 389.879 275.646 387.324 275.646C384.768 275.646 383.026 274.259 382.981 272.29H382.972Z" fill="black"/>
<path d="M397.028 263.532C399.217 263.532 400.923 265.044 400.923 267.137C400.923 269.231 399.217 270.779 397.028 270.779C394.838 270.779 393.105 269.285 393.105 267.137C393.105 264.99 394.83 263.532 397.028 263.532ZM397.028 269.043C398.109 269.025 398.94 268.354 398.922 267.146C398.94 265.983 398.1 265.294 397.028 265.276C395.902 265.294 395.053 265.983 395.062 267.146C395.044 268.354 395.902 269.034 397.028 269.043ZM395.258 271.88H397.287V275.074H405.23V276.684H395.258V271.88ZM404.846 272.909H402.854V262.628H404.846V272.909Z" fill="black"/>
<path d="M408.965 277.964H406.75C407.911 276.479 408.796 273.553 408.805 270.904C408.787 268.265 407.902 265.33 406.75 263.845H408.965C410.476 265.84 411.199 268.131 411.217 270.904C411.199 273.678 410.476 275.96 408.965 277.964Z" fill="black"/>
<path d="M375.824 423.53H375.993L380.497 410.771H382.472L376.896 425.972H374.921L369.39 410.771H371.365L375.824 423.53Z" fill="black"/>
<path d="M386.412 425.981H384.527V410.779H386.412V425.981Z" fill="black"/>
<path d="M389.754 410.771H398.931V412.444H391.639V417.553H398.457V419.181H391.639V424.29H399.056V425.964H389.745V410.762L389.754 410.771Z" fill="black"/>
<path d="M400.61 410.771H402.496L405.668 423.1H405.793L409.01 410.771H411.109L414.326 423.1H414.451L417.623 410.771H419.553L415.389 425.972H413.459L410.118 413.947H410.028L406.677 425.972H404.703L400.583 410.771H400.61Z" fill="black"/>
<path d="M358.811 436.539H363.957C367.514 436.557 369.122 438.534 369.149 441.219C369.131 443.241 368.228 444.824 366.298 445.495L369.747 451.741H367.514L364.359 445.853H360.696V451.741H358.811V436.539ZM363.913 444.144C366.316 444.144 367.254 443.053 367.254 441.228C367.254 439.402 366.307 438.239 363.868 438.221H360.696V444.144H363.913Z" fill="black"/>
<path d="M370.954 446.122C370.954 442.642 373.009 440.217 376.1 440.199C378.504 440.217 381.015 441.684 381.033 445.908V446.677H372.759C372.866 449.057 374.26 450.373 376.279 450.373C377.655 450.373 378.513 449.791 378.897 449.084H380.827C380.309 450.802 378.62 451.983 376.279 452.001C373 451.983 370.963 449.639 370.963 446.113L370.954 446.122ZM379.192 445.138C379.174 443.223 377.968 441.81 376.1 441.828C374.126 441.81 372.884 443.376 372.759 445.138H379.192Z" fill="black"/>
<path d="M387.681 449.298H387.851L392.354 436.539H394.329L388.753 451.741H386.779L381.248 436.539H383.222L387.681 449.298Z" fill="black"/>
<path d="M398.269 451.741H396.384V436.539H398.269V451.741Z" fill="black"/>
<path d="M401.62 436.539H410.797V438.212H403.506V443.321H410.323V444.95H403.506V450.059H410.922V451.732H401.611V436.53L401.62 436.539Z" fill="black"/>
<path d="M412.468 436.539H414.353L417.525 448.869H417.65L420.867 436.539H422.967L426.184 448.869H426.309L429.481 436.539H431.411L427.247 451.741H425.317L421.975 439.715H421.886L418.535 451.741H416.56L412.441 436.539H412.468Z" fill="black"/>
<path d="M173.678 391.873L129.546 360.208L85.4141 391.873" stroke="black" stroke-miterlimit="10"/>
<path d="M394.454 139.563V108.363H129.546V139.563" stroke="black" stroke-miterlimit="10"/>
<path d="M394.454 391.873V329.008" stroke="black" stroke-miterlimit="10"/>
<path d="M129.546 329.008V360.208" stroke="black" stroke-miterlimit="10"/>
<path d="M235.431 72.2506C235.431 68.43 237.262 66.1484 240.095 66.1574C242.4 66.1395 243.973 67.589 244.214 69.4769H241.864C241.685 68.6716 241.024 68.1706 240.095 68.1885C238.567 68.1706 237.745 69.5753 237.745 71.7943H237.843C238.37 70.7922 239.496 70.2017 240.774 70.1838C242.802 70.2017 244.33 71.7496 244.312 73.888C244.33 76.1965 242.588 77.8518 240.032 77.8518C237.665 77.8339 235.431 76.438 235.431 72.2417V72.2506ZM239.997 75.9907C241.167 75.9907 242.025 75.1049 242.025 73.9596C242.025 72.8143 241.185 71.9285 240.032 71.9285C238.88 71.9285 237.986 72.8501 237.977 73.9596C237.995 75.0691 238.844 75.9907 240.006 75.9907H239.997Z" fill="black"/>
<path d="M249.62 65.7465C251.809 65.7465 253.516 67.2586 253.516 69.3523C253.516 71.446 251.809 72.9939 249.62 72.9939C247.431 72.9939 245.697 71.4997 245.697 69.3523C245.697 67.2049 247.422 65.7465 249.62 65.7465ZM249.62 71.2581C250.701 71.2402 251.532 70.5692 251.514 69.3612C251.532 68.1981 250.692 67.5091 249.62 67.4912C248.494 67.5091 247.645 68.1981 247.654 69.3612C247.636 70.5692 248.494 71.2492 249.62 71.2581ZM247.851 74.0945H249.879V77.2798H257.823V78.8903H247.851V74.0855V74.0945ZM257.438 75.1234H255.446V64.8428H257.438V75.1234Z" fill="black"/>
<path d="M271.691 71.7413L270.6 73.316C269.108 72.7523 268.063 71.7055 267.464 70.3723C266.839 71.8665 265.731 73.0476 264.069 73.6382L262.979 72.0634C265.373 71.2939 266.401 69.3255 266.419 67.2586V65.7107H268.447V67.2854C268.429 69.1197 269.43 70.9718 271.699 71.7323L271.691 71.7413ZM265.606 74.3182H267.634V77.2798H275.417V78.8903H265.606V74.3182ZM270.431 67.9028H273.129V64.8428H275.122V75.4097H273.129V69.5134H270.431V67.9028Z" fill="black"/>
<path d="M280.34 67.294H277.445V65.6835H285.201V67.294H282.368C282.404 68.9493 283.432 70.6493 285.648 71.383L284.647 72.9578C283.083 72.4388 281.993 71.4099 281.368 70.1214C280.742 71.5888 279.616 72.7431 277.928 73.3425L276.864 71.732C279.214 70.9625 280.287 69.0925 280.34 67.2851V67.294ZM284.138 73.6378C287.194 73.6557 289.061 74.6668 289.061 76.4115C289.061 78.1563 287.194 79.1673 284.138 79.1852C281.082 79.1673 279.214 78.1563 279.214 76.4115C279.214 74.6668 281.082 73.6557 284.138 73.6378ZM284.138 77.6373C286.032 77.6373 287.069 77.2347 287.069 76.4115C287.069 75.5884 286.041 75.1678 284.138 75.1857C282.243 75.1678 281.207 75.5884 281.207 76.4115C281.207 77.2347 282.234 77.6373 284.138 77.6373ZM289.025 73.3157H287.033V69.9336H284.781V68.323H287.033V64.8066H289.025V73.3157Z" fill="black"/>
<path d="M261.996 35.5576V55.2958" stroke="black" stroke-miterlimit="10"/>
<path d="M261.996 88.625V108.363" stroke="black" stroke-miterlimit="10"/>
<path d="M317.806 55.2959H206.194V88.6253H317.806V55.2959Z" stroke="black" stroke-miterlimit="10"/>
<path d="M202.316 0.814453H215.853V2.80079H210.206V18.8526H207.963V2.80079H202.316V0.814453Z" fill="black"/>
<path d="M220.321 11.0588C221.187 10.9783 223.323 10.853 223.93 10.853V9.73459C223.957 8.02562 222.939 7.03245 220.875 7.03245C219.195 7.03245 218.149 7.81983 217.872 8.86668H215.629C215.88 6.67455 217.997 5.17137 220.973 5.14453C222.751 5.17137 226.066 5.68138 226.066 9.93143V18.8521H223.93V17.0178H223.832C223.403 17.9126 222.179 19.1563 219.865 19.1563C217.274 19.1563 215.236 17.6531 215.236 15.0315C215.236 11.9267 217.962 11.2109 220.33 11.0588H220.321ZM220.169 17.2773C222.608 17.2773 223.957 15.6489 223.93 13.9667V12.5888L220.571 12.8394C218.614 12.9646 217.363 13.6536 217.363 15.1299C217.363 16.6063 218.56 17.2684 220.16 17.2684L220.169 17.2773Z" fill="black"/>
<path d="M231.32 18.8526H229.131V0.814453H231.32V18.8526Z" fill="black"/>
<path d="M233.733 12.1773C233.733 8.05246 236.172 5.17137 239.836 5.14453C242.686 5.17137 245.662 6.89824 245.689 11.9178V12.8394H235.869C235.994 15.6668 237.647 17.2236 240.041 17.2236C241.668 17.2236 242.686 16.5347 243.142 15.6936H245.43C244.822 17.7336 242.811 19.1294 240.033 19.1563C236.137 19.1294 233.724 16.3557 233.724 12.1773H233.733ZM243.499 11.0051C243.473 8.74142 242.052 7.05929 239.836 7.07719C237.495 7.05034 236.021 8.91142 235.869 11.0051H243.499Z" fill="black"/>
<path d="M250.344 18.8521H248.155V5.35032H250.246V7.48877H250.451C251.059 6.08402 252.337 5.17137 254.374 5.14453C257.126 5.17137 258.958 6.82666 258.958 10.2446V18.861H256.822V10.4504C256.795 8.33878 255.652 7.08614 253.766 7.08614C251.783 7.08614 250.335 8.41036 250.353 10.7546V18.861L250.344 18.8521Z" fill="black"/>
<path d="M267.545 7.13118H264.694V14.9781C264.667 16.7139 265.534 16.9913 266.428 16.9645C266.839 16.9913 267.393 16.9376 267.697 16.9108V18.8971C267.393 18.9777 266.857 19.0224 266.222 18.9955C264.417 19.0224 262.532 17.904 262.505 15.5329V7.13118H260.468V5.35063H262.505V2.09375H264.694V5.35063H267.545V7.13118Z" fill="black"/>
<path d="M275.89 0.814453H281.993C286.22 0.841296 288.123 3.36449 288.15 6.57663C288.123 9.76194 286.22 12.312 282.047 12.3388H278.124V18.8615H275.881V0.814453H275.89ZM281.948 10.3435C284.799 10.3167 285.916 8.71508 285.916 6.57663C285.916 4.43818 284.799 2.82764 281.895 2.80974H278.133V10.3435H281.948Z" fill="black"/>
<path d="M289.633 12.1773C289.633 7.94509 292.126 5.17137 295.789 5.14453C299.453 5.17137 301.919 7.94509 301.892 12.1773C301.919 16.3557 299.453 19.1294 295.789 19.1563C292.126 19.1294 289.633 16.3557 289.633 12.1773ZM295.789 17.2236C298.515 17.2236 299.783 14.8525 299.757 12.1773C299.783 9.47511 298.506 7.05929 295.789 7.07719C293.037 7.05034 291.768 9.47511 291.768 12.1773C291.768 14.8794 293.037 17.2236 295.789 17.2236Z" fill="black"/>
<path d="M304.332 5.35053H306.422V7.39056H306.574C307.057 6.03949 308.487 5.12685 310.086 5.14474C310.39 5.1179 310.926 5.14474 311.158 5.14474V7.33688C311.033 7.28319 310.443 7.18477 309.889 7.18477C307.959 7.18477 306.503 8.53584 306.53 10.3432V18.8523H304.34V5.35053H304.332Z" fill="black"/>
<path d="M319.397 7.13118H316.546V14.9781C316.519 16.7139 317.386 16.9913 318.28 16.9645C318.691 16.9913 319.245 16.9376 319.549 16.9108V18.8971C319.245 18.9777 318.709 19.0224 318.074 18.9955C316.269 19.0224 314.384 17.904 314.357 15.5329V7.13118H312.32V5.35063H314.357V2.09375H316.546V5.35063H319.397V7.13118Z" fill="black"/>
<path d="M328.1 7.13114H325.151V18.8523H322.962V7.13114H320.826V5.35059H322.962V3.51636C322.989 1.29739 324.436 0 326.831 0C327.34 0 327.974 0.0536849 328.412 0.152107V2.04003C327.957 1.98634 327.572 1.9595 327.295 1.98634C325.794 1.9595 325.133 2.56793 325.16 3.97268V5.35059H328.109V7.13114H328.1Z" fill="black"/>
<path d="M329.038 12.1773C329.038 7.94509 331.531 5.17137 335.195 5.14453C338.858 5.17137 341.324 7.94509 341.297 12.1773C341.324 16.3557 338.858 19.1294 335.195 19.1563C331.531 19.1294 329.038 16.3557 329.038 12.1773ZM335.195 17.2236C337.92 17.2236 339.189 14.8525 339.162 12.1773C339.189 9.47511 337.911 7.05929 335.195 7.07719C332.442 7.05034 331.174 9.47511 331.174 12.1773C331.174 14.8794 332.442 17.2236 335.195 17.2236Z" fill="black"/>
<path d="M345.953 18.8526H343.764V0.814453H345.953V18.8526Z" fill="black"/>
<path d="M350.099 0.250977C350.912 0.250977 351.6 0.886248 351.573 1.67363C351.6 2.461 350.912 3.09628 350.099 3.09628C349.286 3.09628 348.571 2.461 348.571 1.67363C348.571 0.886248 349.259 0.250977 350.099 0.250977ZM348.982 5.35104H351.171V18.8528H348.982V5.35104Z" fill="black"/>
<path d="M353.485 12.1773C353.485 7.94509 355.978 5.17137 359.642 5.14453C363.305 5.17137 365.772 7.94509 365.745 12.1773C365.772 16.3557 363.305 19.1294 359.642 19.1563C355.978 19.1294 353.485 16.3557 353.485 12.1773ZM359.642 17.2236C362.367 17.2236 363.636 14.8525 363.609 12.1773C363.636 9.47511 362.358 7.05929 359.642 7.07719C356.89 7.05034 355.621 9.47511 355.621 12.1773C355.621 14.8794 356.89 17.2236 359.642 17.2236Z" fill="black"/>
<path d="M194.372 0.0625V9.08156H179.942V0.0625H178.557H177.52H177.172H175.778H174.741L169.389 18.1006H168.799L163.447 0.0625H162.991H161.025H160.668H160.212H158.247V18.8522H160.668V0.814089H161.249L166.592 18.8522H167.629H169.023H169.166H170.417H171.596L176.939 0.814089H177.52V18.8522H179.942V9.83315H194.372V18.8522H196.794V0.0625H194.372Z" fill="black"/>
</g>
<defs>
<clipPath id="clip0_53_5330">
<rect width="455" height="452" fill="white" transform="translate(34.5)"/>
</clipPath>
</defs>
</svg>