<svg width="132" height="60" viewBox="0 0 132 60" fill="none" xmlns="http://www.w3.org/2000/svg">
<path fill-rule="evenodd" clip-rule="evenodd" d="M81.4328 21.0986H79.3163V38.2365H81.4328V21.0986ZM20.3273 38.2415H18.2157L26.1983 21.1036H27.3778H28.3148H29.4943L37.4819 38.2415H35.3653L33.6314 34.5211H22.0612L20.3273 38.2415ZM22.3816 33.8338H33.311L27.8463 22.1088L22.3816 33.8338ZM59.2207 21.0986H57.4298V38.2365H59.6351V21.786H60.1643L65.0373 38.2365H67.2525L67.2512 38.232H67.3875L67.3862 38.2365H69.5965L74.4696 21.786H74.9992V38.2365H77.2046V21.0986H75.9462H74.9992H74.6732H73.4103H72.4629L67.5912 37.5446H67.0474L62.1709 21.0986H61.7566H59.9606H59.6351H59.2207ZM38.1928 21.1036H40.0429H40.3981H40.8027H42.5787H43.2201L52.4551 37.5546H53.2409V38.242H50.7051V38.2415H50.4232L41.1885 21.791H40.3981V38.2415H38.1928V21.1036ZM53.241 21.1036H55.4463V38.2415H53.241V21.1036ZM2.20532 21.1036H0V38.2415H2.20532V30.0139H15.3589V38.2415H17.5642V21.1036H15.3589V29.3265H2.20532V21.1036Z" fill="white"/>
<path fill-rule="evenodd" clip-rule="evenodd" d="M51.7355 4.98953C51.7355 4.98953 52.0874 0.854506 46.7683 0.854506C42.1729 0.854506 41.4789 3.79125 41.697 4.95515C41.7011 4.97633 41.7049 5.00112 41.7093 5.02918L41.7095 5.03017L41.7095 5.03064L41.7096 5.03086C41.7915 5.55783 42.0509 7.22504 46.7187 7.78386C51.4578 8.34862 54.4124 8.97231 54.6255 12.5671C54.8387 16.1619 51.1009 17.8022 46.803 17.8022C42.5051 17.8022 39.0895 16.4075 39.0895 12.356H41.2013C41.2013 12.356 40.894 16.9624 46.8575 16.9624C52.7489 16.9624 52.6073 13.2959 52.5935 12.9373L52.5931 12.9256L52.5929 12.9112C52.5886 12.5646 52.5615 10.377 46.8575 9.73842C40.7403 9.05579 39.615 7.18963 39.615 5.13194C39.615 3.07426 41.2806 0 46.8575 0C52.4344 0 53.9166 2.72067 53.9166 4.98953H51.7355ZM37.0712 9.62546C37.0712 15.5986 33.6498 17.7947 29.4296 17.7973C25.2095 17.7947 21.788 15.5986 21.788 9.62546V0.402692H23.9147V9.62546C23.9147 14.7132 26.3289 16.9624 29.4371 16.9624C32.5452 16.9624 34.9495 14.7132 34.9495 9.62546V0.402692H37.0762V9.62546H37.0712ZM58.1361 0.402692H56.6439V17.4339H58.7705V17.4289H71.0546V16.7463H58.7705V9.25713H71.0546V8.57451H58.7705V1.08531H71.0546V0.402692H58.7705H58.1361ZM80.7591 17.7973C84.9793 17.7947 88.4007 15.5986 88.4007 9.62546H88.4057V0.402692H86.279V9.62546C86.279 14.7132 83.8748 16.9624 80.7666 16.9624C77.6584 16.9624 75.2442 14.7132 75.2442 9.62546V0.402692H73.1176V9.62546C73.1176 15.5986 76.539 17.7947 80.7591 17.7973ZM0 0.402692H1.79459H2.21588H2.53804H4.34261H4.76384L9.66033 16.7463H10.2039L15.1052 0.402692H16.0522H17.326H17.6486H18.6002H19.8645V17.4339H17.6486V1.08531H17.1215L12.225 17.429H9.99921H9.86484H7.644L2.74275 1.08531H2.21588V17.4339H0V0.402692ZM92.2582 0.402692H90.4636V17.4339H92.6795V1.08531H93.2113L98.1078 17.429H100.329H100.468H102.689L107.585 1.08531H108.112V17.4339H110.328V0.402692H109.064H108.112H107.79H106.516H105.569L100.672 16.7463H100.124L95.2277 0.402692H94.8063H93.0068H92.6795H92.2582Z" fill="white"/>
<path fill-rule="evenodd" clip-rule="evenodd" d="M35.2097 53.7427C35.2105 53.74 35.2113 53.7374 35.2121 53.7347L35.2056 53.7413L35.2097 53.7427ZM34.937 54.486C35.0343 54.2468 35.1315 53.9948 35.2097 53.7427L37.3146 54.486C35.8606 57.7328 32.5594 59.9996 28.7015 59.9996C24.8437 59.9996 21.536 57.7328 20.0754 54.486C19.5645 53.3493 19.2763 52.0885 19.2763 50.7689C19.2763 45.6668 23.4944 41.5381 28.7015 41.5381C32.376 41.5381 35.5396 43.609 37.0919 46.614L35.0484 47.3457C33.9546 44.4386 31.5377 42.4069 28.7081 42.4069C24.8699 42.4069 21.7521 46.1502 21.7521 50.7689C21.7521 52.1081 22.0141 53.3689 22.4792 54.486C23.6188 57.2363 25.9833 59.1308 28.7146 59.1308C31.446 59.1308 33.7974 57.2363 34.937 54.486ZM66.3961 59.6012C71.374 59.6012 75.4153 55.6489 75.4153 50.7689C75.4153 45.889 71.3805 41.9367 66.3961 41.9367H59.4073V41.9432H58.3136V59.6077H60.5995V59.6012H66.3961ZM60.5995 58.8891H66.383C70.064 58.8891 73.0442 55.1851 73.0442 50.7689C73.0442 46.3528 70.064 42.6487 66.383 42.6487H60.5995V58.8891ZM117.105 41.9432H114.813L121.121 51.8338L121.736 51.8338H122.267V59.6077H124.553V51.8338H125.083L125.699 51.8338L132 41.9432H129.714L123.856 51.1283H122.957L117.105 41.9432ZM10.4536 41.9432H8.26595L0 59.6012H2.18766L4.61767 54.4142H15.3202L17.7502 59.6012H19.9378L11.6719 41.9432H10.4536ZM4.95171 53.7021L9.96892 42.9754L14.9861 53.7021H4.95171ZM45.3579 41.9432H47.5456H48.7639L57.0298 59.6012H54.8422L52.4121 54.4142H41.7096L39.2796 59.6012H37.092L45.3579 41.9432ZM47.0609 42.9754L42.0437 53.7021H52.0781L47.0609 42.9754ZM91.5151 59.6012V58.8957H79.2078V51.1282H91.5151V50.4227H79.2078V42.6553H91.5151V41.9432H79.2078H78.2057H77.0136V59.6012H78.2057H79.2078H91.5151ZM111.368 41.9432H111.695H112.678H113.981V59.6012H111.695V42.6553H111.152L106.108 59.6012H104.995H103.822H103.685H102.368H101.392L96.3488 42.6553H95.8052V59.6012H93.5192V41.9432H95.3729H95.8052H96.1392H97.9928H98.4251L103.469 58.8957H104.032L109.075 41.9432H110.051H111.368Z" fill="#5FB800"/>
</svg>
