<svg width="132" height="60" viewBox="0 0 132 60" fill="none" xmlns="http://www.w3.org/2000/svg">
<path fill-rule="evenodd" clip-rule="evenodd" d="M81.4328 21.0989H79.3163V38.2367H81.4328V21.0989ZM20.3273 38.2417H18.2157L26.1983 21.1039H27.3778H28.3148H29.4943L37.4819 38.2417H35.3653L33.6314 34.5214H22.0612L20.3273 38.2417ZM22.3816 33.834H33.311L27.8463 22.109L22.3816 33.834ZM59.2207 21.0989H57.4298V38.2367H59.6351V21.7862H60.1643L65.0373 38.2367H67.2525L67.2512 38.2323H67.3875L67.3862 38.2367H69.5965L74.4696 21.7862H74.9992V38.2367H77.2046V21.0989H75.9462H74.9992H74.6732H73.4103H72.4629L67.5912 37.5449H67.0474L62.1709 21.0989H61.7566H59.9606H59.6351H59.2207ZM38.1928 21.1039H40.0429H40.3981H40.8027H42.5787H43.2201L52.4551 37.5549H53.2409V38.2422H50.7051V38.2417H50.4232L41.1885 21.7912H40.3981V38.2417H38.1928V21.1039ZM53.241 21.1039H55.4463V38.2417H53.241V21.1039ZM2.20532 21.1039H0V38.2417H2.20532V30.0142H15.3589V38.2417H17.5642V21.1039H15.3589V29.3268H2.20532V21.1039Z" fill="black"/>
<path fill-rule="evenodd" clip-rule="evenodd" d="M51.7355 4.98953C51.7355 4.98953 52.0874 0.854506 46.7683 0.854506C42.1729 0.854506 41.4789 3.79125 41.697 4.95515C41.7011 4.97633 41.7049 5.00112 41.7093 5.02918L41.7095 5.03017L41.7095 5.03064L41.7096 5.03086C41.7915 5.55783 42.0509 7.22504 46.7187 7.78386C51.4578 8.34862 54.4124 8.97231 54.6255 12.5671C54.8387 16.1619 51.1009 17.8022 46.803 17.8022C42.5051 17.8022 39.0895 16.4075 39.0895 12.356H41.2013C41.2013 12.356 40.894 16.9624 46.8575 16.9624C52.7489 16.9624 52.6073 13.2959 52.5935 12.9373L52.5931 12.9256L52.5929 12.9112C52.5886 12.5646 52.5615 10.377 46.8575 9.73842C40.7403 9.05579 39.615 7.18963 39.615 5.13194C39.615 3.07426 41.2806 0 46.8575 0C52.4344 0 53.9166 2.72067 53.9166 4.98953H51.7355ZM37.0712 9.62546C37.0712 15.5986 33.6498 17.7947 29.4296 17.7973C25.2095 17.7947 21.788 15.5986 21.788 9.62546V0.402692H23.9147V9.62546C23.9147 14.7132 26.3289 16.9624 29.4371 16.9624C32.5452 16.9624 34.9495 14.7132 34.9495 9.62546V0.402692H37.0762V9.62546H37.0712ZM58.1361 0.402692H56.6439V17.4339H58.7705V17.4289H71.0546V16.7463H58.7705V9.25713H71.0546V8.57451H58.7705V1.08531H71.0546V0.402692H58.7705H58.1361ZM80.7591 17.7973C84.9793 17.7947 88.4007 15.5986 88.4007 9.62546H88.4057V0.402692H86.279V9.62546C86.279 14.7132 83.8748 16.9624 80.7666 16.9624C77.6584 16.9624 75.2442 14.7132 75.2442 9.62546V0.402692H73.1176V9.62546C73.1176 15.5986 76.539 17.7947 80.7591 17.7973ZM0 0.402692H1.79459H2.21588H2.53804H4.34261H4.76384L9.66033 16.7463H10.2039L15.1052 0.402692H16.0522H17.326H17.6486H18.6002H19.8645V17.4339H17.6486V1.08531H17.1215L12.225 17.429H9.99921H9.86484H7.644L2.74275 1.08531H2.21588V17.4339H0V0.402692ZM92.2582 0.402692H90.4636V17.4339H92.6795V1.08531H93.2113L98.1078 17.429H100.329H100.468H102.689L107.585 1.08531H108.112V17.4339H110.328V0.402692H109.064H108.112H107.79H106.516H105.569L100.672 16.7463H100.124L95.2277 0.402692H94.8063H93.0068H92.6795H92.2582Z" fill="black"/>
<path fill-rule="evenodd" clip-rule="evenodd" d="M35.2097 53.7432C35.2105 53.7405 35.2113 53.7379 35.2121 53.7352L35.2056 53.7417L35.2097 53.7432ZM34.937 54.4865C35.0343 54.2473 35.1315 53.9953 35.2097 53.7432L37.3146 54.4865C35.8606 57.7332 32.5594 60.0001 28.7015 60.0001C24.8437 60.0001 21.536 57.7332 20.0754 54.4865C19.5645 53.3498 19.2763 52.089 19.2763 50.7693C19.2763 45.6673 23.4944 41.5386 28.7015 41.5386C32.376 41.5386 35.5396 43.6095 37.0919 46.6145L35.0484 47.3462C33.9546 44.4391 31.5377 42.4074 28.7081 42.4074C24.8699 42.4074 21.7521 46.1507 21.7521 50.7693C21.7521 52.1086 22.0141 53.3694 22.4792 54.4865C23.6188 57.2368 25.9833 59.1313 28.7146 59.1313C31.446 59.1313 33.7974 57.2368 34.937 54.4865ZM66.3961 59.6017C71.374 59.6017 75.4153 55.6494 75.4153 50.7694C75.4153 45.8894 71.3805 41.9371 66.3961 41.9371H59.4073V41.9437H58.3136V59.6082H60.5995V59.6017H66.3961ZM60.5995 58.8896H66.383C70.064 58.8896 73.0442 55.1855 73.0442 50.7694C73.0442 46.3533 70.064 42.6492 66.383 42.6492H60.5995V58.8896ZM117.105 41.9437H114.813L121.121 51.8343L121.736 51.8343H122.267V59.6081H124.553V51.8343H125.083L125.699 51.8343L132 41.9437H129.714L123.856 51.1288H122.957L117.105 41.9437ZM10.4536 41.9437H8.26595L0 59.6017H2.18766L4.61767 54.4147H15.3202L17.7502 59.6017H19.9378L11.6719 41.9437H10.4536ZM4.95171 53.7026L9.96892 42.9758L14.9861 53.7026H4.95171ZM45.3579 41.9437H47.5456H48.7639L57.0298 59.6017H54.8422L52.4121 54.4147H41.7096L39.2796 59.6017H37.092L45.3579 41.9437ZM47.0609 42.9758L42.0437 53.7026H52.0781L47.0609 42.9758ZM91.5151 59.6017V58.8961H79.2078V51.1287H91.5151V50.4232H79.2078V42.6557H91.5151V41.9437H79.2078H78.2057H77.0136V59.6017H78.2057H79.2078H91.5151ZM111.368 41.9437H111.695H112.678H113.981V59.6017H111.695V42.6557H111.152L106.108 59.6017H104.995H103.822H103.685H102.368H101.392L96.3488 42.6557H95.8052V59.6017H93.5192V41.9437H95.3729H95.8052H96.1392H97.9928H98.4251L103.469 58.8961H104.032L109.075 41.9437H110.051H111.368Z" fill="#5FB800"/>
</svg>
