<svg width="1440" height="514" viewBox="0 0 1440 514" fill="none" xmlns="http://www.w3.org/2000/svg">
<g opacity="0.05">
<path fill-rule="evenodd" clip-rule="evenodd" d="M675.249 65.2779C675.249 65.2779 679.843 11.1795 610.418 11.1795C550.439 11.1795 541.381 49.601 544.228 64.8282C544.281 65.105 544.331 65.429 544.388 65.7957L544.389 65.7996L544.39 65.8103L544.391 65.8154L544.391 65.8177L544.392 65.8187C545.461 72.7129 548.846 94.5251 609.771 101.836C671.626 109.225 710.188 117.385 712.97 164.416C715.752 211.447 666.967 232.906 610.871 232.906C554.775 232.906 510.195 214.659 510.195 161.653H537.758C537.758 161.653 533.746 221.919 611.583 221.919C688.477 221.919 686.629 173.951 686.448 169.259L686.442 169.106C686.441 169.049 686.441 168.986 686.44 168.917C686.384 164.383 686.031 135.763 611.583 127.408C531.741 118.477 517.053 94.0619 517.053 67.1412C517.053 40.2205 538.793 0 611.583 0C684.372 0 703.718 35.5945 703.718 65.2779H675.249ZM739.314 5.26894H758.791H767.071H927.403V14.1997H767.071V112.18H927.403V121.111H767.071V219.093H927.403V228.024H767.071V228.088H739.314V5.26894ZM1040.19 513.936V291.117H1067.95V513.936H1040.19ZM266.582 514H238.89L343.577 291.181H359.046H371.334H386.803L491.555 514H463.798L433.018 448.528H297.362L266.582 514ZM365.19 304.25L428.82 439.598H301.56L365.19 304.25ZM776.648 291.117L753.161 291.117V513.936H782.082V300.048H789.021L852.931 513.936H881.982L881.963 513.871H883.754L883.735 513.936H912.721L976.63 300.048H983.574V513.936H1012.5V291.117H995.996H983.574H979.299H962.739H950.313L886.422 504.941H879.291L815.339 291.117H809.904H786.353L782.082 291.117L776.648 291.117ZM500.878 291.181H525.141H529.8H535.105H558.398H566.809L687.92 505.069H698.226V514H692.977H664.969H661.274L540.162 300.112H529.8V514H500.878V291.181ZM698.227 291.181H727.149V514H698.227V291.181ZM483.852 125.93C483.852 204.077 439.195 232.809 384.114 232.842C329.033 232.809 284.377 204.077 284.377 125.93V5.26894H312.134V125.93C312.134 192.493 343.643 221.92 384.211 221.92C424.779 221.92 456.16 192.493 456.16 125.93V5.26894H483.917V125.93H483.852ZM384.114 232.842L384.211 232.842H384.017L384.114 232.842ZM1054.07 232.842C1109.15 232.809 1153.8 204.077 1153.8 125.93H1153.87V5.26894H1126.11V125.93C1126.11 192.493 1094.73 221.92 1054.16 221.92C1013.59 221.92 982.085 192.493 982.085 125.93V5.26894H954.328V125.93C954.328 204.077 998.984 232.809 1054.07 232.842ZM1054.07 232.842L1053.97 232.842H1054.16L1054.07 232.842ZM0 5.26894L23.422 5.26893H33.1272H56.6786H62.1783L126.087 219.093H133.181L197.152 5.26893H209.513H226.138H230.348H242.77H259.27V228.088H230.348V14.1997H223.469L159.56 228.023L145.39 228.024H112.133L99.77 228.023L35.7991 14.1997H28.9216V228.088H0V5.26894ZM1204.15 5.26893L1180.73 5.26894V228.088H1209.65V14.1997H1216.59L1280.5 228.023L1292.86 228.024H1326.12L1340.29 228.023L1404.2 14.1997H1411.08V228.088H1440V5.26893H1423.5H1411.08H1406.87H1390.24H1377.88L1313.97 219.093H1306.82L1242.91 5.26893H1237.41H1213.92H1204.15ZM0 291.181H28.9216V398.093H201.425V291.181H230.347V514H201.425V407.024H28.9216V514H0V291.181Z" fill="black"/>
</g>
</svg>
