<svg width="24" height="24" viewBox="0 0 24 24" fill="none" xmlns="http://www.w3.org/2000/svg">
<path fill-rule="evenodd" clip-rule="evenodd" d="M14.2184 9.77778H20.8851C21.1798 9.77778 21.4624 9.66071 21.6708 9.45234C21.8791 9.24397 21.9962 8.96135 21.9962 8.66667V2H19.774V5.70991C19.2009 5.00165 18.5312 4.37184 17.7811 3.84039C16.3122 2.7997 14.5897 2.17482 12.7952 2.03167C11.0007 1.88852 9.20089 2.23243 7.58562 3.02709C5.97035 3.82175 4.59953 5.0377 3.61784 6.54663C2.63614 8.05556 2.07996 9.8015 2.008 11.6002C1.93603 13.399 2.35094 15.1838 3.20895 16.7663C4.06696 18.3488 5.33625 19.6704 6.88287 20.5916C8.42949 21.5127 10.1961 21.9993 11.9963 22C13.9724 21.9995 15.9041 21.4134 17.5474 20.3159C19.1908 19.2183 20.4721 17.6585 21.2296 15.8333L19.1851 14.9778C18.4999 16.6325 17.2645 18 15.6877 18.8493C14.1109 19.6987 12.2893 19.9778 10.5305 19.6396C8.77172 19.3014 7.18355 18.3665 6.03422 16.993C4.88489 15.6194 4.24482 13.8912 4.2221 12.1004C4.19939 10.3095 4.79544 8.56569 5.90957 7.16341C7.0237 5.76113 8.58765 4.78632 10.3373 4.40361C12.0869 4.02091 13.915 4.25376 15.5129 5.06284C16.6671 5.64728 17.65 6.50653 18.3809 7.55555H14.2184V9.77778Z" fill="black"/>
</svg>
