<svg width="160" height="160" viewBox="0 0 160 160" fill="none" xmlns="http://www.w3.org/2000/svg">
<rect width="160" height="160" fill="#F6F6F6"/>
<path fill-rule="evenodd" clip-rule="evenodd" d="M77.0166 66.945C77.0166 66.945 77.3229 63.2612 72.6945 63.2612C68.696 63.2612 68.0921 65.8775 68.2819 66.9144C68.2854 66.9336 68.2889 66.9562 68.2928 66.9818C68.3641 67.4513 68.5898 68.9365 72.6514 69.4344C76.775 69.9375 79.3459 70.4931 79.5313 73.6956C79.7168 76.8981 76.4645 78.3594 72.7247 78.3594C68.985 78.3594 66.013 77.1169 66.013 73.5075H67.8505C67.8505 73.5075 67.5831 77.6112 72.7722 77.6112C77.8984 77.6112 77.7753 74.3449 77.7632 74.0254L77.7628 74.015L77.7626 74.0021C77.7589 73.6934 77.7354 71.7445 72.7722 71.1756C67.4494 70.5675 66.4702 68.905 66.4702 67.0719C66.4702 65.2387 67.9195 62.5 72.7722 62.5C77.6248 62.5 78.9145 64.9237 78.9145 66.945H77.0166ZM81.2876 62.8588H82.5861H83.1381H93.8269V63.4669H83.1381V70.1387H93.8269V70.7469H83.1381V77.4188H93.8269V78.0269H83.1381V78.0313H81.2876V62.8588ZM101.346 97.4956V82.3231H103.196V97.4956H101.346ZM49.7721 97.5H47.926L54.9051 82.3275H55.9364H56.7556H57.7869L64.7703 97.5H62.9199L60.8679 93.0418H51.8241L49.7721 97.5ZM56.346 83.2174L60.588 92.4337H52.104L56.346 83.2174ZM83.7765 82.3231H82.2107V97.4956H84.1388V82.9313H84.6014L88.8621 97.4956H90.7988L90.7975 97.4912H90.9169L90.9156 97.4956H92.8481L97.1087 82.9313H97.5716V97.4956H99.4997V82.3231H98.3997H97.5716H97.2866H96.1826H95.3542L91.0948 96.8831H90.6194L86.3559 82.3231H85.9936H84.4235H84.1388H83.7765ZM65.3919 82.3275H67.0094H67.32H67.6737H69.2265H69.7873L77.8614 96.8919H78.5484V97.5H78.1985H76.3313H76.0849L68.0108 82.9356H67.32V97.5H65.3919V82.3275ZM78.5485 82.3275H80.4766V97.5H78.5485V82.3275ZM64.2568 71.075C64.2568 76.3963 61.2797 78.3527 57.6076 78.355C53.9355 78.3527 50.9584 76.3963 50.9584 71.075V62.8588H52.8089V71.075C52.8089 75.6075 54.9096 77.6113 57.6141 77.6113C60.3186 77.6113 62.4106 75.6075 62.4106 71.075V62.8588H64.2611V71.075H64.2568ZM57.6076 78.355L57.6011 78.355H57.6141L57.6076 78.355ZM102.271 78.355C105.943 78.3527 108.92 76.3963 108.92 71.075H108.925V62.8588H107.074V71.075C107.074 75.6075 104.982 77.6113 102.278 77.6113C99.573 77.6113 97.4723 75.6075 97.4723 71.075V62.8588H95.6219V71.075C95.6219 76.3963 98.5989 78.3527 102.271 78.355ZM102.271 78.355L102.265 78.355H102.278L102.271 78.355ZM32 62.8588L33.5615 62.8588H34.2085H35.7786H36.1452L40.4058 77.4188H40.8787L45.1435 62.8588H45.9676H47.0759H47.3566H48.1847H49.2847V78.0313H47.3566V63.4669H46.8979L42.6373 78.0269L41.6926 78.0269H39.4755L38.6513 78.0269L34.3866 63.4669H33.9281V78.0313H32V62.8588ZM112.277 62.8588L110.715 62.8588V78.0313H112.643V63.4669H113.106L117.367 78.0269L118.191 78.0269H120.408L121.353 78.0269L125.613 63.4669H126.072V78.0313H128V62.8588H126.9H126.072H125.791H124.683H123.859L119.598 77.4188H119.121L114.86 62.8588H114.494H112.928H112.277ZM32 82.3275H33.9281V89.6075H45.4284V82.3275H47.3565V97.5H45.4284V90.2156H33.9281V97.5H32V82.3275Z" fill="#DDDDDD"/>
</svg>
