<svg width="156" height="162" viewBox="0 0 156 162" fill="none" xmlns="http://www.w3.org/2000/svg">
<rect width="156" height="162" fill="#F6F6F6"/>
<path fill-rule="evenodd" clip-rule="evenodd" d="M75.0166 67.945C75.0166 67.945 75.3229 64.2612 70.6945 64.2612C66.696 64.2612 66.0921 66.8775 66.2819 67.9144C66.2854 67.9336 66.2889 67.9562 66.2928 67.9818C66.3641 68.4513 66.5898 69.9365 70.6514 70.4344C74.775 70.9375 77.3459 71.4931 77.5313 74.6956C77.7168 77.8981 74.4645 79.3594 70.7247 79.3594C66.985 79.3594 64.013 78.1169 64.013 74.5075H65.8505C65.8505 74.5075 65.5831 78.6112 70.7722 78.6112C75.8984 78.6112 75.7753 75.3449 75.7632 75.0254L75.7628 75.015L75.7626 75.0021C75.7589 74.6934 75.7354 72.7445 70.7722 72.1756C65.4494 71.5675 64.4702 69.905 64.4702 68.0719C64.4702 66.2387 65.9195 63.5 70.7722 63.5C75.6248 63.5 76.9145 65.9237 76.9145 67.945H75.0166ZM79.2876 63.8588H80.5861H81.1381H91.8269V64.4669H81.1381V71.1387H91.8269V71.7469H81.1381V78.4188H91.8269V79.0269H81.1381V79.0313H79.2876V63.8588ZM99.346 98.4956V83.3231H101.196V98.4956H99.346ZM47.7721 98.5H45.926L52.9051 83.3275H53.9364H54.7556H55.7869L62.7703 98.5H60.9199L58.8679 94.0418H49.8241L47.7721 98.5ZM54.346 84.2174L58.588 93.4337H50.104L54.346 84.2174ZM81.7765 83.3231H80.2107V98.4956H82.1388V83.9313H82.6014L86.8621 98.4956H88.7988L88.7975 98.4912H88.9169L88.9156 98.4956H90.8481L95.1087 83.9313H95.5716V98.4956H97.4997V83.3231H96.3997H95.5716H95.2866H94.1826H93.3542L89.0948 97.8831H88.6194L84.3559 83.3231H83.9936H82.4235H82.1388H81.7765ZM63.3919 83.3275H65.0094H65.32H65.6737H67.2265H67.7873L75.8614 97.8919H76.5484V98.5H76.1985H74.3313H74.0849L66.0108 83.9356H65.32V98.5H63.3919V83.3275ZM76.5485 83.3275H78.4766V98.5H76.5485V83.3275ZM62.2568 72.075C62.2568 77.3963 59.2797 79.3527 55.6076 79.355C51.9355 79.3527 48.9584 77.3963 48.9584 72.075V63.8588H50.8089V72.075C50.8089 76.6075 52.9096 78.6113 55.6141 78.6113C58.3186 78.6113 60.4106 76.6075 60.4106 72.075V63.8588H62.2611V72.075H62.2568ZM55.6076 79.355L55.6011 79.355H55.6141L55.6076 79.355ZM100.271 79.355C103.943 79.3527 106.92 77.3963 106.92 72.075H106.925V63.8588H105.074V72.075C105.074 76.6075 102.982 78.6113 100.278 78.6113C97.573 78.6113 95.4723 76.6075 95.4723 72.075V63.8588H93.6219V72.075C93.6219 77.3963 96.5989 79.3527 100.271 79.355ZM100.271 79.355L100.265 79.355H100.278L100.271 79.355ZM30 63.8588L31.5615 63.8588H32.2085H33.7786H34.1452L38.4058 78.4188H38.8787L43.1435 63.8588H43.9676H45.0759H45.3566H46.1847H47.2847V79.0313H45.3566V64.4669H44.8979L40.6373 79.0269L39.6926 79.0269H37.4755L36.6513 79.0269L32.3866 64.4669H31.9281V79.0313H30V63.8588ZM110.277 63.8588L108.715 63.8588V79.0313H110.643V64.4669H111.106L115.367 79.0269L116.191 79.0269H118.408L119.353 79.0269L123.613 64.4669H124.072V79.0313H126V63.8588H124.9H124.072H123.791H122.683H121.859L117.598 78.4188H117.121L112.86 63.8588H112.494H110.928H110.277ZM30 83.3275H31.9281V90.6075H43.4284V83.3275H45.3565V98.5H43.4284V91.2156H31.9281V98.5H30V83.3275Z" fill="#DDDDDD"/>
</svg>
