<svg width="24" height="24" viewBox="0 0 24 24" fill="none" xmlns="http://www.w3.org/2000/svg">
<path fill-rule="evenodd" clip-rule="evenodd" d="M7 3C8.30622 3 9.41746 3.83481 9.82929 5H21C21.5523 5 22 5.44772 22 6C22 6.55228 21.5523 7 21 7H9.82929C9.41746 8.16519 8.30622 9 7 9C5.69378 9 4.58254 8.16519 4.17071 7H3C2.44772 7 2 6.55228 2 6C2 5.44772 2.44772 5 3 5H4.17071C4.58254 3.83481 5.69378 3 7 3ZM2 12C2 11.4477 2.44772 11 3 11H14.1707C14.5825 9.83481 15.6938 9 17 9C18.3062 9 19.4175 9.83481 19.8293 11H21C21.5523 11 22 11.4477 22 12C22 12.5523 21.5523 13 21 13H19.8293C19.4175 14.1652 18.3062 15 17 15C15.6938 15 14.5825 14.1652 14.1707 13H3C2.44772 13 2 12.5523 2 12ZM3 17C2.44772 17 2 17.4477 2 18C2 18.5523 2.44772 19 3 19H8.17071C8.58254 20.1652 9.69378 21 11 21C12.3062 21 13.4175 20.1652 13.8293 19H21C21.5523 19 22 18.5523 22 18C22 17.4477 21.5523 17 21 17H13.8293C13.4175 15.8348 12.3062 15 11 15C9.69378 15 8.58254 15.8348 8.17071 17H3ZM7 7C7.55228 7 8 6.55228 8 6C8 5.44772 7.55228 5 7 5C6.44772 5 6 5.44772 6 6C6 6.55228 6.44772 7 7 7ZM18 12C18 12.5523 17.5523 13 17 13C16.4477 13 16 12.5523 16 12C16 11.4477 16.4477 11 17 11C17.5523 11 18 11.4477 18 12ZM11 19C11.5523 19 12 18.5523 12 18C12 17.4477 11.5523 17 11 17C10.4477 17 10 17.4477 10 18C10 18.5523 10.4477 19 11 19Z" fill="black"/>
</svg>
