<svg width="24" height="24" viewBox="0 0 24 24" fill="none" xmlns="http://www.w3.org/2000/svg">
<path fill-rule="evenodd" clip-rule="evenodd" d="M10.6034 2.10682C12.7504 1.80476 14.9373 2.20862 16.8347 3.25754C18.7322 4.30646 20.2373 5.94363 21.1234 7.92236C22.0095 9.90109 22.2285 12.1142 21.7474 14.2282C21.2663 16.3422 20.1112 18.2426 18.4562 19.6431C16.8011 21.0435 14.7357 21.8682 12.5713 21.9928C10.4068 22.1173 8.26044 21.5351 6.45564 20.3338C4.65084 19.1324 3.28535 17.3771 2.56491 15.3322C2.38139 14.8113 2.65489 14.2403 3.17579 14.0568C3.69669 13.8733 4.26774 14.1468 4.45126 14.6677C5.02761 16.3035 6.12 17.7078 7.56384 18.6689C9.00768 19.6299 10.7248 20.0957 12.4563 19.9961C14.1879 19.8964 15.8402 19.2367 17.1643 18.1163C18.4883 16.996 19.4124 15.4756 19.7972 13.7844C20.1821 12.0932 20.0069 10.3227 19.298 8.73974C18.5892 7.15676 17.3851 5.84703 15.8671 5.00789C14.3492 4.16875 12.5996 3.84567 10.8821 4.08731C9.29526 4.31057 7.81519 5.0047 6.63108 6.07544H8C8.55228 6.07544 9 6.52315 9 7.07544C9 7.62772 8.55228 8.07544 8 8.07544H4C3.44772 8.07544 3 7.62772 3 7.07544V3.07544C3 2.52315 3.44772 2.07544 4 2.07544C4.55228 2.07544 5 2.52315 5 3.07544V4.86459C6.52488 3.37129 8.4883 2.40441 10.6034 2.10682ZM13.4023 8C13.4023 7.44772 12.9546 7 12.4023 7C11.8501 7 11.4023 7.44772 11.4023 8V12C11.4023 12.3788 11.6163 12.725 11.9551 12.8944L15.9551 14.8944C16.4491 15.1414 17.0498 14.9412 17.2968 14.4472C17.5438 13.9532 17.3435 13.3526 16.8496 13.1056L13.4023 11.382V8Z" fill="black"/>
</svg>
