<svg width="24" height="24" viewBox="0 0 24 24" fill="none" xmlns="http://www.w3.org/2000/svg">
<path fill-rule="evenodd" clip-rule="evenodd" d="M12 21C16.9706 21 21 16.9706 21 12C21 7.02944 16.9706 3 12 3C7.02944 3 3 7.02944 3 12C3 16.9706 7.02944 21 12 21ZM23 12C23 18.0751 18.0751 23 12 23C5.92487 23 1 18.0751 1 12C1 5.92487 5.92487 0.999999 12 0.999999C18.0751 1 23 5.92487 23 12ZM12 18C11.4477 18 11 17.5523 11 17L11 11C11 10.4477 11.4477 10 12 10C12.5523 10 13 10.4477 13 11L13 17C13 17.5523 12.5523 18 12 18ZM12 8C12.5523 8 13 7.55228 13 7C13 6.44771 12.5523 6 12 6L11.99 6C11.4377 6 10.99 6.44771 10.99 7C10.99 7.55228 11.4377 8 11.99 8L12 8Z" fill="black"/>
</svg>
