<svg width="24" height="24" viewBox="0 0 24 24" fill="none" xmlns="http://www.w3.org/2000/svg">
<path fill-rule="evenodd" clip-rule="evenodd" d="M18 3C16.8954 3 16 3.89543 16 5C16 5.34714 16.0884 5.67362 16.244 5.95815C16.2543 5.97369 16.2642 5.98961 16.2737 6.0059C16.2831 6.02208 16.2921 6.03842 16.3005 6.05489C16.6534 6.62229 17.2826 7 18 7C19.1046 7 20 6.10457 20 5C20 3.89543 19.1046 3 18 3ZM15.158 7.81481C15.8829 8.54666 16.8885 9 18 9C20.2091 9 22 7.20914 22 5C22 2.79086 20.2091 1 18 1C15.7909 1 14 2.79086 14 5C14 5.37699 14.0522 5.74181 14.1496 6.08762L8.84189 9.1851C8.117 8.4533 7.11143 8 6 8C3.79086 8 2 9.79086 2 12C2 14.2091 3.79086 16 6 16C7.11169 16 8.11745 15.5465 8.84239 14.8144L14.1509 17.9078C14.0526 18.255 14 18.6213 14 19C14 21.2091 15.7909 23 18 23C20.2091 23 22 21.2091 22 19C22 16.7909 20.2091 15 18 15C16.8902 15 15.886 15.4519 15.1614 16.1818L9.85052 13.0871C9.9479 12.7414 10 12.3768 10 12C10 11.623 9.94783 11.2581 9.85032 10.9123L15.158 7.81481ZM7.6999 10.9458C7.70822 10.962 7.71702 10.978 7.72631 10.994C7.73568 11.01 7.74542 11.0257 7.75553 11.041C7.91139 11.3257 8 11.6525 8 12C8 12.3471 7.91156 12.6736 7.75599 12.9581C7.74561 12.9739 7.7356 12.99 7.72599 13.0065C7.71666 13.0225 7.70783 13.0386 7.69949 13.0549C7.34655 13.6223 6.71738 14 6 14C4.89543 14 4 13.1046 4 12C4 10.8954 4.89543 10 6 10C6.71766 10 7.34704 10.378 7.6999 10.9458ZM16 19C16 18.6748 16.0776 18.3677 16.2154 18.0962C16.24 18.0638 16.263 18.0295 16.284 17.9934C16.3042 17.9588 16.322 17.9235 16.3376 17.8877C16.6965 17.3524 17.3071 17 18 17C19.1046 17 20 17.8954 20 19C20 20.1046 19.1046 21 18 21C16.8954 21 16 20.1046 16 19Z" fill="black"/>
</svg>
